<?xml version="1.0" standalone="no"?>
<!DOCTYPE svg PUBLIC "-//W3C//DTD SVG 20010904//EN"
 "http://www.w3.org/TR/2001/REC-SVG-20010904/DTD/svg10.dtd">
<svg version="1.0" xmlns="http://www.w3.org/2000/svg"
 width="500.000000pt" height="499.000000pt" viewBox="0 0 500.000000 499.000000"
 preserveAspectRatio="xMidYMid meet">

<g transform="translate(0.000000,499.000000) scale(0.100000,-0.100000)"
fill="#000000" stroke="none">
<path d="M4050 4835 l0 -75 289 0 c203 0 292 -3 297 -11 4 -7 -299 -315 -747
-760 -702 -698 -756 -749 -794 -754 -22 -4 -398 -5 -836 -3 -694 3 -798 1
-816 -12 -12 -8 -128 -109 -260 -225 -371 -327 -616 -541 -742 -650 -64 -55
-141 -124 -171 -153 -30 -30 -65 -60 -77 -69 -13 -8 -23 -20 -23 -26 0 -9 77
-99 91 -105 4 -2 67 49 140 113 74 64 154 133 179 154 52 44 603 526 700 612
36 32 105 92 154 133 l90 76 840 0 841 0 775 775 c426 426 778 775 782 775 5
0 8 -133 8 -295 l0 -295 80 0 80 0 0 419 c0 231 -3 426 -6 435 -5 14 -54 16
-440 16 l-434 0 0 -75z"/>
<path d="M4080 3314 c-226 -17 -415 -78 -515 -166 -77 -68 -78 -72 -86 -343
-4 -132 -8 -244 -9 -250 0 -5 4 -48 10 -95 7 -57 8 -397 4 -1040 -4 -692 -3
-969 6 -1004 24 -107 115 -184 276 -234 159 -49 220 -57 449 -57 162 0 228 4
288 18 87 19 226 65 277 92 54 28 127 108 139 153 14 50 14 2599 0 2653 -16
62 -80 124 -182 174 -100 49 -159 67 -282 83 -87 12 -303 21 -375 16z m353
-175 c136 -20 253 -62 300 -107 33 -31 34 -42 5 -69 -39 -35 -104 -62 -216
-90 -97 -24 -125 -26 -312 -27 -181 0 -217 2 -305 23 -104 25 -197 60 -227 88
-23 21 -23 55 0 75 43 39 160 82 275 103 89 16 383 19 480 4z m-638 -404 c116
-39 186 -52 345 -61 178 -10 410 23 538 78 73 30 82 27 82 -35 0 -43 -5 -58
-22 -74 -38 -35 -107 -64 -238 -100 -74 -21 -488 -24 -570 -4 -122 29 -217 67
-252 99 -24 22 -28 34 -28 77 0 57 6 69 29 59 9 -3 61 -21 116 -39z m-37 -305
c120 -42 186 -56 333 -71 191 -19 349 -2 522 56 95 31 135 40 144 33 18 -14
16 -89 -2 -115 -21 -29 -124 -76 -230 -104 -82 -21 -111 -24 -315 -24 -239 0
-283 6 -420 53 -103 35 -140 72 -140 139 0 44 5 63 17 63 2 0 42 -14 91 -30z
m22 -328 c123 -47 241 -63 457 -63 172 1 246 11 381 57 130 43 138 43 146 2
12 -66 -3 -90 -81 -129 -136 -67 -320 -95 -559 -85 -188 9 -298 32 -402 85
-52 26 -75 60 -75 110 0 69 8 71 133 23z m-4 -316 c154 -53 214 -61 454 -61
231 0 277 7 446 71 83 31 99 23 90 -45 -8 -55 -17 -66 -87 -101 -127 -64 -336
-97 -551 -86 -226 12 -370 51 -445 120 -28 25 -33 37 -33 76 0 45 5 60 21 60
3 0 51 -15 105 -34z m7 -325 c125 -46 191 -54 422 -54 240 -1 287 6 451 63
105 36 120 31 110 -39 -3 -24 -11 -50 -18 -58 -21 -26 -106 -63 -206 -91 -93
-26 -107 -27 -332 -27 -248 0 -278 4 -424 53 -102 34 -136 65 -136 124 0 73 6
75 133 29z m76 -347 c76 -20 269 -44 356 -44 142 0 410 50 486 90 10 6 27 10
38 10 18 0 21 -6 21 -50 0 -76 -42 -108 -204 -155 -274 -79 -798 -30 -886 83
-23 29 -28 118 -7 125 6 2 41 -7 76 -20 36 -13 90 -31 120 -39z m-110 -283
c168 -62 412 -92 592 -72 120 13 242 39 330 72 83 30 89 28 89 -31 0 -77 -44
-109 -218 -158 -93 -26 -106 -27 -342 -27 -236 0 -248 1 -342 27 -170 48 -208
77 -208 160 0 43 2 48 23 48 12 0 46 -9 76 -19z m29 -331 c275 -93 621 -89
893 11 83 30 89 27 89 -30 0 -43 -4 -52 -34 -79 -37 -32 -111 -63 -215 -90
-53 -13 -115 -17 -306 -17 -266 0 -337 10 -452 64 -83 40 -103 63 -103 123 0
59 5 60 128 18z"/>
<path d="M2325 2340 c-190 -20 -382 -95 -454 -176 -23 -26 -46 -64 -51 -85 -7
-25 -10 -322 -8 -861 l3 -823 28 -47 c138 -235 860 -303 1230 -117 71 36 136
93 154 136 10 26 13 190 13 870 0 826 0 837 -21 880 -79 164 -487 266 -894
223z m444 -156 c118 -21 206 -51 269 -90 60 -39 66 -61 23 -97 -106 -89 -431
-145 -684 -118 -191 21 -366 80 -403 136 -17 25 -16 27 11 55 36 38 148 84
250 104 44 8 89 17 100 19 55 12 354 6 434 -9z m-729 -379 c43 -22 210 -64
305 -76 195 -25 475 4 640 66 115 43 105 46 105 -24 0 -34 -4 -70 -9 -80 -5
-9 -46 -34 -91 -55 -192 -90 -564 -109 -823 -41 -74 19 -171 69 -191 97 -16
23 -23 118 -9 131 7 8 35 1 73 -18z m1 -320 c34 -13 114 -37 178 -52 106 -25
133 -27 311 -27 175 0 207 3 306 26 61 15 140 38 176 52 35 14 68 26 71 26 9
0 9 -113 1 -135 -10 -25 -136 -83 -228 -105 -305 -73 -753 -24 -871 94 -20 21
-25 35 -25 79 0 47 5 67 17 67 2 0 31 -11 64 -25z m-9 -316 c154 -61 288 -84
498 -84 191 0 327 21 460 72 109 41 100 44 100 -28 0 -35 -6 -71 -13 -80 -21
-28 -133 -78 -220 -99 -262 -63 -599 -43 -798 46 -79 35 -99 62 -99 129 0 45
5 65 16 65 2 0 27 -9 56 -21z m10 -324 c267 -105 634 -112 926 -15 48 15 95
31 105 35 15 6 17 0 17 -56 0 -36 -6 -71 -13 -81 -7 -9 -40 -30 -72 -46 -202
-103 -633 -119 -879 -33 -74 26 -143 66 -156 91 -13 24 -13 130 0 130 5 0 38
-11 72 -25z m0 -320 c194 -77 490 -105 713 -67 100 17 235 54 318 87 15 6 17
0 17 -57 0 -74 -11 -89 -95 -131 -121 -59 -243 -80 -475 -79 -105 0 -198 6
-256 16 -135 24 -270 82 -294 126 -13 24 -13 130 0 130 5 0 38 -11 72 -25z"/>
<path d="M640 1701 c-260 -32 -467 -139 -500 -260 -7 -28 -10 -201 -8 -543 3
-502 3 -503 26 -546 72 -136 354 -226 702 -225 227 0 400 36 543 110 79 42
143 109 154 162 5 20 8 261 8 536 l0 500 -26 45 c-36 60 -92 104 -188 145
-132 56 -249 77 -461 80 -102 2 -214 0 -250 -4z m476 -161 c179 -36 298 -96
292 -148 -2 -20 -17 -33 -71 -62 -229 -124 -754 -125 -979 -3 -96 52 -99 84
-14 133 126 71 259 98 497 99 139 1 198 -3 275 -19z m-744 -379 c164 -65 440
-96 638 -72 111 14 271 52 341 83 27 11 52 18 56 14 3 -3 5 -32 4 -63 -2 -70
-18 -90 -101 -127 -148 -67 -379 -96 -597 -77 -196 18 -377 76 -417 133 -18
25 -23 138 -6 138 5 0 42 -13 82 -29z m-11 -315 c243 -107 656 -112 939 -12
41 15 83 29 93 33 15 5 17 -2 17 -59 0 -76 -12 -92 -101 -132 -231 -106 -658
-109 -919 -8 -14 6 -44 24 -67 41 -43 31 -43 31 -43 96 0 75 2 76 81 41z m-9
-317 c69 -28 124 -43 228 -66 121 -25 420 -25 540 1 73 16 213 57 273 81 15 6
17 0 17 -57 0 -54 -4 -68 -22 -84 -38 -34 -70 -50 -148 -77 -286 -98 -804 -54
-936 78 -20 20 -24 34 -24 85 0 33 4 60 10 60 5 0 33 -9 62 -21z"/>
</g>
</svg>
