<?xml version="1.0" standalone="no"?>
<!DOCTYPE svg PUBLIC "-//W3C//DTD SVG 20010904//EN"
 "http://www.w3.org/TR/2001/REC-SVG-20010904/DTD/svg10.dtd">
<svg version="1.0" xmlns="http://www.w3.org/2000/svg"
 width="507.000000pt" height="492.000000pt" viewBox="0 0 507.000000 492.000000"
 preserveAspectRatio="xMidYMid meet">

<g transform="translate(0.000000,492.000000) scale(0.100000,-0.100000)"
fill="#000000" stroke="none">
<path d="M2545 4681 c-22 -10 -54 -34 -72 -52 -51 -54 -63 -102 -63 -261 0
-77 -4 -147 -10 -157 -5 -10 -24 -24 -42 -31 -18 -7 -75 -31 -126 -52 -58 -24
-101 -37 -113 -33 -11 4 -66 53 -122 110 -58 59 -119 111 -140 120 -50 21
-133 19 -184 -5 -48 -21 -381 -348 -407 -398 -30 -58 -35 -109 -18 -170 14
-53 27 -69 162 -206 129 -131 151 -149 179 -149 41 0 74 32 74 73 0 26 -20 51
-136 169 -123 123 -137 141 -137 172 0 32 16 50 173 207 150 148 178 172 204
172 26 0 49 -18 142 -108 150 -147 200 -165 316 -116 33 14 100 41 149 61 102
42 155 87 174 149 7 24 12 100 12 183 0 138 1 143 25 167 l25 25 251 -3 c235
-3 252 -4 265 -22 10 -15 14 -53 14 -147 0 -239 28 -287 210 -359 30 -12 80
-33 110 -47 129 -59 178 -43 336 108 96 92 119 109 146 109 27 0 53 -22 205
-173 218 -217 214 -196 66 -348 -119 -121 -131 -138 -139 -201 -6 -47 4 -80
74 -248 76 -178 112 -201 327 -207 77 -2 150 -6 161 -8 40 -9 45 -46 42 -299
-3 -213 -5 -239 -21 -250 -11 -9 -68 -15 -170 -18 -133 -4 -160 -8 -200 -27
-54 -26 -97 -74 -116 -128 -7 -21 -26 -66 -42 -100 -48 -107 -61 -154 -54
-203 9 -63 19 -78 121 -183 50 -50 98 -103 107 -117 36 -52 28 -64 -160 -247
-149 -145 -183 -173 -208 -173 -24 0 -53 23 -170 140 -151 149 -166 158 -214
121 -19 -14 -25 -29 -25 -56 0 -34 10 -47 141 -176 151 -149 196 -178 274
-179 81 0 113 22 303 209 193 191 226 237 226 321 -1 73 -30 122 -145 234 -70
70 -105 112 -105 126 0 12 18 62 40 110 21 49 42 99 45 113 14 53 29 57 201
60 174 3 208 12 266 74 52 55 58 91 58 375 0 281 -4 304 -58 361 -56 59 -86
67 -255 67 -139 0 -157 2 -180 20 -13 11 -28 31 -31 46 -4 14 -25 66 -47 116
-30 65 -39 97 -34 116 4 15 48 65 102 116 139 132 173 222 123 329 -27 57
-370 400 -422 422 -48 19 -128 19 -175 0 -20 -9 -84 -62 -142 -119 -58 -57
-114 -106 -123 -109 -19 -7 -252 83 -275 106 -12 11 -14 45 -14 152 1 104 -3
151 -15 188 -21 62 -87 131 -140 146 -23 7 -145 11 -299 11 -232 0 -264 -2
-300 -19z"/>
<path d="M2749 3670 c-190 -23 -381 -106 -519 -228 -61 -54 -77 -84 -65 -121
10 -33 58 -53 92 -40 15 5 30 14 33 18 14 20 126 103 182 134 108 61 207 88
343 94 149 7 254 -12 370 -66 250 -117 409 -320 461 -589 46 -242 -32 -511
-202 -694 -51 -55 -56 -87 -19 -123 37 -38 71 -32 119 19 105 111 184 250 229
404 19 66 22 101 22 247 0 146 -3 181 -22 247 -95 328 -353 585 -669 668 -75
19 -226 41 -269 39 -11 -1 -50 -5 -86 -9z"/>
<path d="M1715 3231 c-81 -22 -119 -51 -154 -116 -16 -31 -21 -57 -21 -116 0
-61 -4 -81 -20 -102 -24 -30 -121 -70 -147 -60 -10 3 -42 28 -70 55 -64 59
-112 81 -178 80 -83 -1 -117 -23 -264 -170 -107 -107 -139 -146 -149 -178 -28
-95 -7 -166 77 -255 58 -62 63 -83 30 -158 -25 -60 -48 -71 -142 -71 -62 0
-80 -5 -125 -30 -31 -18 -63 -47 -80 -73 l-27 -42 0 -221 0 -220 28 -42 c45
-69 96 -95 202 -102 50 -3 96 -10 104 -14 19 -12 61 -107 61 -139 0 -21 -14
-43 -55 -84 -30 -31 -62 -75 -71 -99 -22 -58 -14 -138 19 -190 34 -53 254
-267 296 -289 22 -11 58 -18 95 -18 74 0 122 22 186 87 51 53 80 58 153 26 66
-29 77 -50 77 -143 0 -91 20 -141 73 -181 66 -51 93 -56 285 -56 189 0 224 6
280 47 59 44 83 92 88 180 8 118 9 120 64 148 77 39 105 34 175 -30 78 -72
141 -93 224 -75 53 12 64 20 195 149 150 148 178 190 178 272 0 62 -30 123
-87 178 -58 56 -64 78 -33 149 29 69 51 82 143 82 46 0 84 7 110 19 43 19 100
77 117 120 6 14 13 103 16 197 3 137 1 182 -12 225 -32 113 -113 169 -240 169
-56 0 -79 4 -94 18 -21 17 -62 109 -62 138 0 8 27 43 59 78 72 78 97 142 81
213 -16 71 -31 90 -172 230 -119 118 -139 133 -188 147 -50 15 -61 15 -115 1
-61 -16 -81 -29 -123 -78 -14 -15 -38 -35 -55 -43 -28 -15 -34 -14 -90 8 -33
12 -65 32 -72 43 -7 11 -15 60 -18 108 -7 105 -34 154 -111 202 l-49 30 -181
2 c-100 1 -194 -2 -211 -6z m380 -157 c16 -12 21 -31 26 -109 5 -81 10 -102
35 -142 25 -41 42 -54 114 -90 68 -34 96 -42 140 -42 67 -1 123 24 170 74 43
46 85 68 114 61 31 -8 266 -248 266 -273 0 -21 -17 -46 -70 -103 -77 -82 -93
-170 -50 -270 57 -135 120 -180 258 -190 124 -8 124 -8 120 -228 -3 -201 -4
-202 -94 -202 -29 0 -77 -5 -105 -11 -94 -20 -178 -129 -205 -266 -10 -52 20
-122 86 -197 33 -37 60 -74 60 -82 0 -28 -18 -51 -136 -168 -143 -141 -145
-142 -238 -57 -102 92 -176 102 -307 43 -118 -54 -149 -101 -158 -240 -5 -77
-10 -96 -26 -108 -14 -11 -59 -14 -195 -14 -218 0 -211 -4 -220 135 -8 128
-32 164 -145 219 -140 69 -212 60 -328 -43 -85 -75 -88 -74 -234 72 -148 148
-151 158 -74 240 98 105 111 169 59 295 -56 131 -131 182 -270 182 -96 0 -98
5 -98 215 0 213 1 215 107 215 129 1 194 42 249 157 66 136 56 206 -45 317
-78 86 -76 94 68 240 107 108 123 120 155 120 27 0 45 -9 84 -46 100 -94 182
-111 296 -61 135 59 167 103 176 241 9 134 5 132 224 132 136 -1 175 -4 191
-16z"/>
<path d="M1755 2415 c-134 -34 -226 -85 -315 -175 -76 -75 -129 -158 -161
-250 -31 -88 -39 -287 -15 -381 70 -272 313 -471 592 -486 183 -10 328 35 471
145 89 69 110 94 157 189 54 110 69 182 69 318 0 198 -52 324 -188 460 -90 91
-198 152 -315 180 -78 18 -226 18 -295 0z m268 -146 c83 -16 197 -84 265 -159
38 -43 90 -142 106 -206 54 -210 -31 -439 -206 -552 -169 -109 -354 -118 -527
-27 -81 43 -127 84 -179 159 -62 88 -87 171 -87 291 0 192 85 341 250 440 113
68 226 84 378 54z"/>
</g>
</svg>
