<?xml version="1.0" standalone="no"?>
<!DOCTYPE svg PUBLIC "-//W3C//DTD SVG 20010904//EN"
 "http://www.w3.org/TR/2001/REC-SVG-20010904/DTD/svg10.dtd">
<svg version="1.0" xmlns="http://www.w3.org/2000/svg"
 width="514.000000pt" height="485.000000pt" viewBox="0 0 514.000000 485.000000"
 preserveAspectRatio="xMidYMid meet">

<g transform="translate(0.000000,485.000000) scale(0.100000,-0.100000)"
fill="#000000" stroke="none">
<path d="M2335 4535 c-356 -50 -688 -199 -970 -437 -231 -195 -433 -490 -539
-788 l-34 -95 -58 -7 c-187 -21 -363 -168 -445 -370 -63 -152 -88 -407 -58
-574 58 -330 243 -583 460 -633 68 -16 126 -13 230 12 107 26 152 48 183 90
31 43 26 146 -22 452 -80 506 -92 603 -82 685 22 189 74 361 161 535 140 280
364 514 641 671 244 138 478 197 778 197 150 0 193 -4 302 -26 300 -63 559
-196 773 -399 239 -227 396 -498 466 -808 33 -148 35 -270 5 -475 -55 -383
-68 -441 -126 -560 -177 -366 -470 -635 -855 -788 -199 -79 -311 -97 -617 -98
-252 -1 -277 -5 -329 -54 -47 -43 -59 -82 -59 -185 0 -128 31 -185 117 -216
48 -17 557 -20 616 -3 82 22 137 99 137 191 0 35 2 38 43 48 69 18 257 90 332
127 267 134 503 328 670 552 38 50 70 91 72 91 3 0 50 -12 106 -26 77 -20 118
-25 169 -21 218 15 414 236 499 563 20 77 23 113 23 264 0 210 -16 286 -96
450 -88 182 -209 275 -389 301 l-86 12 -23 71 c-32 101 -101 254 -157 348
-106 177 -286 387 -438 508 -224 178 -507 310 -810 375 -159 35 -421 44 -590
20z"/>
<path d="M2383 3959 c-270 -35 -551 -182 -746 -389 -247 -262 -378 -651 -337
-1001 34 -297 117 -489 320 -740 l21 -25 -41 -181 c-22 -99 -40 -193 -40 -209
0 -41 35 -94 62 -96 52 -3 79 7 208 79 74 42 154 86 178 99 l44 23 81 -30
c196 -71 463 -93 675 -55 245 44 475 162 653 333 183 176 300 380 359 624 28
114 38 360 21 491 -72 542 -515 991 -1058 1073 -104 16 -297 18 -400 4z m-351
-1043 c147 -71 184 -263 75 -392 -41 -49 -105 -74 -185 -74 -59 0 -75 4 -122
33 -97 58 -141 172 -110 286 14 53 98 141 150 158 48 16 148 10 192 -11z m638
3 c99 -45 144 -116 144 -230 1 -67 -3 -81 -29 -125 -19 -30 -49 -60 -79 -79
-44 -27 -58 -30 -131 -30 -73 0 -87 3 -131 30 -93 58 -134 171 -103 283 16 57
96 142 149 159 57 18 130 15 180 -8z m666 -2 c80 -41 133 -128 134 -218 0 -71
-14 -113 -56 -165 -86 -107 -261 -114 -360 -15 -51 50 -69 97 -68 176 1 118
60 199 174 236 37 12 141 4 176 -14z"/>
</g>
</svg>
