<?xml version="1.0" standalone="no"?>
<!DOCTYPE svg PUBLIC "-//W3C//DTD SVG 20010904//EN"
 "http://www.w3.org/TR/2001/REC-SVG-20010904/DTD/svg10.dtd">
<svg version="1.0" xmlns="http://www.w3.org/2000/svg"
 width="515.000000pt" height="484.000000pt" viewBox="0 0 515.000000 484.000000"
 preserveAspectRatio="xMidYMid meet">

<g transform="translate(0.000000,484.000000) scale(0.100000,-0.100000)"
fill="#000000" stroke="none">
<path d="M2480 4535 l0 -135 -927 0 c-511 -1 -991 -1 -1069 0 -77 0 -148 -2
-157 -6 -16 -6 -17 -128 -17 -1895 l0 -1889 1083 -2 1082 -3 3 -132 3 -133
134 0 135 0 0 135 0 135 1080 0 1080 0 -2 1893 -3 1892 -1078 5 -1079 5 -1
130 -2 130 -132 3 -133 3 0 -136z m-2 -607 l-3 -203 -947 -3 -948 -2 0 205 0
205 950 0 950 0 -2 -202z m2170 0 l-3 -203 -947 -3 -948 -2 0 205 0 205 950 0
950 0 -2 -202z m-3260 -1425 l-3 -948 -400 0 -400 0 -3 407 -2 407 132 3 133
3 3 110 c4 167 15 155 -138 155 l-130 0 0 405 0 405 405 0 405 0 -2 -947z
m1092 542 l0 -405 -410 0 -410 0 0 398 c0 219 3 402 7 405 3 4 188 7 410 7
l403 0 0 -405z m1078 -2 l2 -403 -405 0 -405 0 0 405 0 405 403 -2 402 -3 3
-402z m1092 2 l0 -405 -135 0 c-159 0 -147 13 -143 -155 l3 -110 138 -3 137
-3 0 -404 0 -405 -23 -5 c-12 -3 -195 -5 -407 -3 l-385 3 -3 948 -2 947 410 0
410 0 0 -405z m-2175 -1085 l0 -405 -394 -2 c-274 -2 -399 1 -408 9 -10 8 -13
91 -13 403 0 215 3 395 7 398 4 4 187 6 407 5 l401 -3 0 -405z m1083 3 l2
-401 -72 -6 c-40 -4 -221 -5 -403 -4 l-330 3 -3 408 -2 407 402 -2 403 -3 3
-402z m-1124 -679 l46 -7 -2 -196 -3 -196 -947 -3 -948 -2 0 198 c0 109 3 202
7 205 8 9 1785 9 1847 1z m2200 0 c14 -5 16 -33 16 -205 l0 -199 -950 0 -950
0 0 198 c0 109 3 202 7 205 8 9 1856 9 1877 1z"/>
</g>
</svg>
