<?xml version="1.0" standalone="no"?>
<!DOCTYPE svg PUBLIC "-//W3C//DTD SVG 20010904//EN"
 "http://www.w3.org/TR/2001/REC-SVG-20010904/DTD/svg10.dtd">
<svg version="1.0" xmlns="http://www.w3.org/2000/svg"
 width="489.000000pt" height="510.000000pt" viewBox="0 0 489.000000 510.000000"
 preserveAspectRatio="xMidYMid meet">

<g transform="translate(0.000000,510.000000) scale(0.100000,-0.100000)"
fill="#000000" stroke="none">
<path d="M490 4886 c-122 -31 -225 -103 -298 -210 -87 -125 -95 -160 -100
-458 -2 -156 0 -289 7 -338 15 -113 70 -226 148 -303 78 -76 117 -101 210
-134 l78 -28 610 0 c664 0 661 0 785 58 81 38 183 137 227 223 58 109 63 148
63 464 0 245 -3 295 -18 351 -40 142 -132 259 -258 326 -119 63 -122 63 -797
62 -424 -1 -626 -5 -657 -13z"/>
<path d="M3025 4876 c-81 -26 -103 -38 -164 -86 -67 -53 -79 -63 -61 -54 8 5
-2 -8 -22 -29 -42 -42 -92 -140 -110 -218 -10 -42 -13 -285 -13 -1084 l0
-1030 24 -72 c14 -43 28 -70 34 -66 6 3 7 1 3 -6 -12 -18 41 -100 104 -161 70
-69 182 -127 270 -141 41 -6 299 -9 675 -7 l610 3 70 31 c39 17 69 36 68 42
-2 6 3 9 11 6 32 -12 193 151 181 184 -3 7 -1 11 3 8 11 -7 41 55 58 119 20
73 20 2116 0 2190 -49 187 -213 346 -394 384 -36 7 -253 11 -665 11 -609 -1
-612 -1 -682 -24z"/>
<path d="M487 3175 c-53 -14 -163 -68 -187 -91 -8 -8 -30 -28 -48 -45 -29 -26
-32 -33 -20 -47 11 -15 11 -15 -3 -5 -12 10 -18 9 -30 -5 -27 -32 -59 -93 -82
-155 l-22 -62 -3 -1015 c-3 -1049 -1 -1097 38 -1203 25 -66 78 -149 91 -141 5
3 8 0 7 -7 -2 -6 28 -38 65 -70 75 -64 163 -103 257 -114 65 -8 1186 -7 1233
1 53 9 147 46 141 55 -3 5 1 6 9 3 29 -11 203 146 192 174 -3 7 -1 10 5 7 13
-8 68 110 80 174 14 73 14 2068 0 2142 -27 147 -147 301 -283 364 -40 19 -94
39 -118 44 -70 17 -1261 13 -1322 -4z"/>
<path d="M3150 1693 c-103 -8 -222 -50 -273 -97 -14 -13 -32 -26 -40 -29 -46
-18 -145 -183 -167 -278 -17 -74 -25 -482 -12 -595 29 -251 211 -443 454 -477
59 -9 251 -11 673 -7 l590 5 60 25 c143 61 258 171 312 299 l28 66 3 316 c3
269 1 326 -13 380 -46 179 -185 324 -361 375 -49 14 -131 16 -638 18 -319 0
-597 0 -616 -1z"/>
</g>
</svg>
