<?xml version="1.0" standalone="no"?>
<!DOCTYPE svg PUBLIC "-//W3C//DTD SVG 20010904//EN"
 "http://www.w3.org/TR/2001/REC-SVG-20010904/DTD/svg10.dtd">
<svg version="1.0" xmlns="http://www.w3.org/2000/svg"
 width="519.000000pt" height="481.000000pt" viewBox="0 0 519.000000 481.000000"
 preserveAspectRatio="xMidYMid meet">

<g transform="translate(0.000000,481.000000) scale(0.100000,-0.100000)"
fill="#000000" stroke="none">
<path d="M2608 4703 c-8 -10 -47 -83 -86 -163 -40 -80 -75 -151 -80 -158 -5
-7 -78 -22 -181 -37 -175 -24 -221 -40 -221 -73 0 -9 62 -78 137 -154 l136
-137 -27 -154 c-30 -170 -31 -234 -4 -251 18 -11 49 3 272 120 l89 48 46 -25
c25 -13 99 -52 164 -86 121 -65 144 -72 165 -51 17 17 15 45 -13 212 -14 81
-25 159 -25 173 0 19 31 55 130 152 105 101 130 131 130 153 0 17 -8 31 -20
38 -11 6 -98 22 -192 36 -95 14 -175 27 -178 30 -3 3 -43 80 -90 172 -74 145
-88 167 -111 170 -15 2 -31 -4 -41 -15z m103 -283 c72 -149 55 -138 244 -165
66 -10 122 -19 125 -22 2 -2 -44 -50 -104 -107 -124 -118 -115 -87 -81 -288
10 -59 16 -110 13 -114 -4 -3 -46 16 -95 43 -48 26 -108 57 -132 68 l-43 19
-52 -27 c-158 -86 -206 -110 -211 -106 -4 4 23 178 41 262 5 25 -5 39 -102
137 -59 61 -105 112 -102 115 2 3 66 14 141 24 74 10 140 22 147 26 6 4 38 62
70 129 54 110 68 136 76 136 1 0 30 -58 65 -130z"/>
<path d="M1368 4573 c-9 -10 -41 -68 -71 -129 l-56 -112 -48 -10 c-26 -6 -88
-16 -137 -23 -86 -11 -126 -30 -126 -60 0 -7 47 -60 104 -118 l103 -106 -20
-132 c-22 -139 -17 -183 18 -183 9 0 72 29 141 65 l125 66 126 -66 c112 -59
129 -65 151 -55 24 10 25 14 19 78 -4 37 -13 104 -20 149 l-14 82 98 99 c76
75 99 105 99 125 0 36 -17 43 -151 62 -63 8 -122 18 -132 21 -10 3 -43 56 -78
127 -33 67 -66 125 -72 129 -20 13 -43 9 -59 -9z m82 -242 c22 -44 45 -83 52
-88 7 -4 56 -15 108 -24 l95 -16 -73 -74 -74 -74 6 -50 c4 -27 10 -74 13 -103
l6 -54 -91 48 -92 48 -89 -47 c-95 -51 -110 -50 -92 6 6 17 13 59 17 93 l6 61
-73 71 c-40 39 -71 73 -69 76 3 2 43 9 90 16 47 6 93 13 102 16 9 3 35 43 58
90 22 46 45 84 50 84 5 0 28 -36 50 -79z"/>
<path d="M3853 4578 c-6 -7 -37 -65 -68 -128 -32 -63 -62 -118 -68 -122 -6 -3
-29 -9 -51 -12 -189 -25 -210 -30 -227 -47 -11 -11 -19 -24 -19 -30 0 -7 46
-58 102 -115 l102 -104 -22 -132 c-12 -73 -22 -139 -22 -145 0 -7 11 -20 24
-28 24 -16 29 -14 147 46 67 34 128 62 135 62 7 0 69 -29 138 -64 l125 -64 23
22 22 23 -18 112 c-9 62 -20 126 -23 141 -4 26 6 39 96 129 56 55 101 108 101
117 0 32 -33 48 -120 60 -47 7 -108 17 -136 23 l-50 10 -65 127 c-55 108 -68
126 -90 129 -14 2 -30 -3 -36 -10z m83 -249 c21 -44 45 -84 54 -89 8 -4 54
-14 100 -21 47 -7 87 -14 89 -16 3 -2 -26 -34 -63 -72 -76 -76 -76 -77 -56
-188 7 -38 11 -75 9 -82 -3 -7 -36 5 -93 35 l-89 46 -59 -28 c-32 -15 -64 -34
-70 -41 -13 -17 -58 -17 -57 0 0 6 6 46 13 87 8 42 10 83 6 95 -5 11 -36 47
-69 80 -34 33 -61 62 -61 66 0 3 41 12 90 19 50 7 97 18 105 24 8 6 32 48 55
94 22 46 44 80 49 77 5 -3 26 -41 47 -86z"/>
<path d="M1195 3470 c-123 -5 -134 -7 -198 -39 -130 -64 -230 -191 -257 -326
-7 -39 -10 -148 -8 -307 3 -232 4 -248 24 -275 31 -41 80 -71 130 -79 24 -3
44 -9 44 -13 14 -176 54 -266 157 -346 47 -36 52 -44 52 -82 l1 -41 -187 -4
c-229 -5 -269 -17 -367 -108 -69 -65 -110 -137 -126 -219 -6 -31 -10 -222 -10
-445 0 -338 2 -395 16 -414 l15 -22 640 0 c504 0 639 -3 641 -12 0 -7 2 -94 2
-193 1 -99 5 -186 9 -192 12 -19 1720 -19 1736 0 6 9 12 84 13 203 l3 189 634
3 c577 2 636 4 653 19 18 16 18 39 16 457 l-3 441 -27 57 c-51 109 -150 190
-274 223 -44 12 -99 15 -219 14 l-160 -3 -3 41 c-3 37 0 43 35 69 99 71 161
183 171 307 4 61 7 67 27 67 69 0 154 63 174 129 16 56 14 324 -4 417 -43 227
-214 410 -437 470 -30 8 -100 14 -163 14 -91 0 -122 -5 -178 -25 -183 -64
-331 -215 -388 -395 -26 -82 -39 -402 -19 -474 20 -72 103 -136 175 -136 21 0
23 -6 29 -78 11 -123 69 -229 162 -293 39 -27 44 -34 44 -69 l0 -40 -154 0
c-171 0 -235 -9 -312 -44 -127 -58 -224 -202 -224 -333 l0 -43 -125 0 -125 0
0 44 c0 39 4 46 39 69 91 60 159 184 168 303 l6 72 43 5 c52 5 102 37 134 83
22 34 22 35 21 366 l-2 332 -26 58 c-30 67 -93 130 -161 161 -41 19 -68 22
-219 25 -182 4 -289 -10 -356 -44 -17 -10 -70 -21 -117 -24 -142 -12 -227 -66
-282 -178 l-33 -66 -3 -289 c-3 -273 -2 -291 17 -330 24 -49 64 -76 136 -92
45 -10 50 -14 52 -41 13 -155 54 -240 157 -329 52 -44 57 -51 54 -84 l-3 -36
-119 0 -120 0 -12 70 c-20 120 -79 212 -177 276 -80 52 -168 71 -327 69 -199
-2 -180 -7 -180 45 0 25 4 45 9 45 22 0 120 104 149 158 32 59 42 101 45 182
2 44 2 45 44 52 75 12 130 53 152 111 7 17 11 126 11 282 0 220 -2 261 -19
314 -38 122 -125 222 -246 282 -66 32 -76 34 -205 39 -74 3 -194 3 -265 0z
m410 -120 c43 -17 77 -40 121 -84 87 -88 104 -142 104 -338 l0 -149 -47 3
c-40 3 -49 7 -63 33 -9 17 -29 34 -46 39 -125 38 -218 91 -287 165 -21 23 -47
41 -56 41 -10 0 -47 -28 -82 -63 -68 -65 -161 -118 -239 -136 -41 -9 -56 -21
-85 -64 -5 -8 -29 -17 -53 -20 l-44 -5 4 166 c3 156 5 171 30 224 50 108 146
184 258 208 25 5 131 8 235 6 173 -2 195 -4 250 -26z m2511 0 c73 -26 127 -59
185 -115 100 -97 146 -205 156 -362 l6 -93 -41 0 c-53 0 -72 8 -72 31 0 37
-37 49 -155 49 -60 0 -132 6 -160 14 -65 17 -159 60 -200 91 -17 14 -41 25
-52 25 -30 0 -210 -147 -222 -181 -9 -27 -14 -29 -62 -29 l-52 0 6 98 c8 112
24 171 69 250 71 126 216 224 363 245 53 8 176 -4 231 -23z m-1125 -401 c50
-15 105 -62 129 -108 16 -33 19 -64 21 -257 2 -200 1 -219 -14 -218 -9 0 -33
1 -52 2 -25 2 -35 7 -35 19 0 9 -7 25 -17 35 -13 15 -32 18 -112 18 -156 0
-258 31 -412 122 l-37 22 -56 -43 c-93 -72 -147 -123 -157 -148 -5 -13 -17
-23 -28 -23 -10 0 -33 -3 -50 -6 l-31 -6 0 178 c0 152 3 185 19 219 39 85 117
134 213 135 31 0 69 5 85 11 114 47 177 58 337 58 92 1 175 -4 197 -10z
m-1614 -52 c62 -54 101 -78 177 -108 l71 -28 0 -218 c0 -215 0 -219 -26 -273
-29 -60 -76 -113 -123 -137 -122 -64 -277 -38 -364 62 -62 70 -65 82 -75 314
-5 117 -6 223 -3 235 4 15 23 27 71 45 67 24 166 84 200 120 24 28 28 27 72
-12z m2603 -112 c30 -10 102 -20 160 -24 l105 -6 3 -204 c2 -165 -1 -214 -13
-252 -60 -179 -270 -257 -433 -162 -51 30 -114 112 -130 169 -13 46 -17 461
-4 480 4 7 31 30 61 52 l54 41 71 -39 c39 -21 96 -46 126 -55z m-2168 -122
c10 -9 18 -30 18 -48 0 -18 -8 -39 -18 -48 -21 -19 -82 -34 -83 -21 -6 66 -8
122 -4 133 7 17 61 8 87 -16z m1746 -50 c3 -67 1 -73 -17 -73 -63 0 -103 58
-76 110 15 29 34 39 70 37 18 -2 20 -10 23 -74z m887 44 c34 -48 4 -107 -55
-110 l-35 -2 -3 64 c-2 38 1 67 8 71 19 12 70 -2 85 -23z m-3513 -31 c5 -82 2
-89 -35 -82 -88 17 -89 136 -1 136 32 0 32 0 36 -54z m1631 -211 c100 -49 156
-63 287 -73 l85 -7 0 -215 c0 -197 -2 -219 -21 -261 -63 -136 -214 -207 -356
-165 -65 19 -147 87 -181 150 -21 38 -22 56 -25 282 l-4 241 59 47 c32 25 60
46 61 46 2 0 45 -20 95 -45z m-322 -165 c-2 -8 -7 -37 -10 -65 -6 -46 -8 -50
-30 -47 -59 6 -80 66 -39 109 26 28 86 30 79 3z m877 4 c16 -11 22 -25 22 -54
0 -45 -26 -70 -72 -70 -28 0 -28 0 -28 70 0 70 0 70 28 70 15 0 38 -7 50 -16z
m879 -257 c47 6 45 9 48 -64 1 -53 19 -73 62 -73 43 0 50 -18 25 -67 -80 -154
-291 -148 -357 10 -19 46 -14 57 30 57 44 0 65 29 65 91 0 25 2 48 6 51 3 3
22 2 42 -3 20 -4 56 -5 79 -2z m-2577 -49 c0 -70 12 -88 60 -88 35 0 40 -3 40
-23 0 -13 -13 -43 -29 -68 -81 -128 -270 -112 -336 28 -22 46 -14 63 29 63 43
0 56 20 56 88 l0 50 90 -1 90 0 0 -49z m2250 -122 c0 -60 68 -162 133 -201 25
-14 70 -31 100 -37 140 -30 288 64 329 207 17 58 24 65 59 55 76 -22 137 -86
158 -165 7 -25 11 -185 11 -438 l0 -397 -467 2 -468 3 -6 190 c-6 194 -10 218
-49 294 -21 41 -22 55 -19 200 4 150 5 158 32 204 30 51 88 95 139 107 41 9
48 5 48 -24z m-2870 13 c0 -6 -9 -23 -20 -39 -40 -56 -44 -81 -49 -310 l-6
-225 -85 1 -85 2 0 178 c0 189 4 211 52 285 44 67 193 150 193 108z m245 -16
c32 -150 178 -259 320 -240 109 15 213 105 242 209 14 49 20 58 39 58 58 0
129 -53 165 -122 17 -32 19 -59 19 -207 0 -95 -4 -172 -9 -176 -5 -3 -19 -30
-30 -60 -17 -46 -22 -85 -25 -228 -2 -94 -5 -180 -5 -189 -1 -17 -30 -18 -466
-18 l-465 0 0 408 c0 233 4 422 10 442 20 72 108 149 172 150 22 0 29 -5 33
-27z m888 7 c98 -46 161 -132 174 -237 l6 -51 -59 -17 c-32 -9 -67 -23 -78
-31 -42 -29 -46 -20 -46 89 0 115 -9 158 -45 211 -42 61 -28 72 48 36z m1497
15 c0 -3 -11 -22 -24 -43 -39 -60 -58 -143 -54 -235 4 -95 9 -92 -99 -51 -73
26 -73 27 -73 64 0 95 73 204 165 246 48 22 85 30 85 19z m1126 -14 c61 -28
117 -83 147 -145 27 -55 27 -57 25 -238 l-3 -182 -80 0 -80 -1 -6 215 c-6 223
-12 258 -54 321 -14 21 -25 41 -25 44 0 11 36 4 76 -14z m-1826 -303 c7 -68
13 -77 61 -84 46 -8 51 -29 20 -80 -34 -56 -86 -87 -151 -92 -96 -7 -168 39
-197 125 -13 36 -9 43 26 43 14 0 31 4 38 8 17 11 33 58 33 96 0 18 2 35 4 37
2 2 40 3 83 2 l78 -1 5 -54z m-616 -97 c3 -5 -4 -20 -15 -35 -49 -62 -59 -121
-59 -341 l0 -206 -87 3 -88 3 1 180 c0 175 1 182 28 237 32 66 99 130 159 152
52 18 54 18 61 7z m247 -31 c13 -81 83 -167 168 -210 37 -18 57 -21 127 -18
77 3 86 5 140 43 68 47 110 104 127 175 13 55 22 59 78 36 50 -21 86 -52 114
-100 l24 -42 1 -414 c0 -228 0 -419 0 -425 0 -7 -171 -9 -497 -8 l-498 3 -3
402 c-2 255 1 416 7 438 14 49 72 113 123 139 59 29 81 25 89 -19z m881 16
c62 -27 119 -80 151 -139 20 -39 22 -58 25 -235 l4 -193 -89 3 -88 3 0 215 c0
205 -1 218 -24 267 -13 29 -29 58 -37 64 -16 13 -19 39 -4 39 5 0 33 -11 62
-24z m-2529 -255 c15 -1 17 -16 17 -156 l0 -156 -87 3 -88 3 -3 144 c-1 87 1
148 8 156 9 10 66 13 153 6z m4015 -153 l3 -158 -86 0 -85 0 0 153 c0 85 3
157 7 161 4 4 41 5 83 4 l75 -3 3 -157z m-2693 -418 l0 -155 -85 0 -85 0 -3
145 c-1 79 0 150 3 157 3 10 25 13 87 11 l83 -3 0 -155z m1385 0 l0 -160 -85
0 c-47 0 -86 3 -86 8 -4 23 -6 280 -2 295 4 14 17 17 89 17 l84 0 0 -160z"/>
</g>
</svg>
